<?xml version="1.0" encoding="UTF-8" standalone="no"?>
<!-- Created with Inkscape (http://www.inkscape.org/) -->

<svg
   version="1.1"
   id="svg1"
   width="85.241928"
   height="113.6559"
   viewBox="0 0 85.241928 113.6559"
   sodipodi:docname="silhueta.svg"
   inkscape:version="1.3 (0e150ed, 2023-07-21)"
   xmlns:inkscape="http://www.inkscape.org/namespaces/inkscape"
   xmlns:sodipodi="http://sodipodi.sourceforge.net/DTD/sodipodi-0.dtd"
   xmlns="http://www.w3.org/2000/svg"
   xmlns:svg="http://www.w3.org/2000/svg">
  <defs
     id="defs1" />
  <sodipodi:namedview
     id="namedview1"
     pagecolor="#ffffff"
     bordercolor="#666666"
     borderopacity="1.0"
     inkscape:showpageshadow="2"
     inkscape:pageopacity="0.0"
     inkscape:pagecheckerboard="0"
     inkscape:deskcolor="#d1d1d1"
     inkscape:zoom="2.9573268"
     inkscape:cx="88.086308"
     inkscape:cy="56.808061"
     inkscape:window-width="1920"
     inkscape:window-height="1055"
     inkscape:window-x="0"
     inkscape:window-y="0"
     inkscape:window-maximized="1"
     inkscape:current-layer="g1" />
  <g
     inkscape:groupmode="layer"
     inkscape:label="Image"
     id="g1"
     transform="translate(-5.0343094,-0.80504093)">
    <g
       id="g6">
      <rect
         style="fill:#ffffff;stroke-width:0.747191;stroke-linecap:round"
         id="rect4"
         width="85.241928"
         height="113.6559"
         x="5.0343094"
         y="0.80504096" />
      <path
         id="rect2"
         style="fill:#000000;stroke-width:0.747191;stroke-linecap:round"
         d="m 45.326172,18.625 c -1.082498,-0.0023 -1.665399,0.165898 -2.238281,0.503906 -0.597187,0.352349 -1.696148,0.74323 -2.441407,0.869141 -0.745257,0.125911 -1.599649,0.466475 -1.90039,0.755859 -0.300742,0.289385 -1.09557,0.810957 -1.765625,1.158203 -0.670056,0.347246 -2.059938,1.562212 -3.087891,2.701172 -1.723475,1.909591 -1.924469,2.296587 -2.589844,4.96875 -0.910991,3.658566 -1.016243,11.818353 -0.185546,14.337891 0.477903,1.449508 0.472062,1.519531 -0.09766,1.519531 -1.635574,0 -1.56603,2.907892 0.220703,9.212891 0.407187,1.436873 0.615637,1.71883 1.376954,1.871094 0.84521,0.169041 0.906723,0.298782 1.089843,2.259765 0.183961,1.969998 0.787642,3.567734 2.486328,6.587891 0.629822,1.119784 0.664902,1.491482 0.453125,4.880859 l -0.230468,3.669922 -1.392578,1.226563 C 32.916781,77.002789 30.341308,78.234022 24.25195,80.302734 18.398189,82.291407 14.129956,84.023071 11.974606,85.28125 10.355361,86.226479 9.0958482,88.491122 7.7109345,92.947266 7.1942118,94.609899 6.7927145,112.41584 6.75,114.46094 H 88.560547 L 87.988281,94.435547 C 86.604267,89.441161 85.243232,86.667581 83.603516,85.5 81.885365,84.276569 74.172937,81.178193 69.119141,79.681641 66.134816,78.797909 63.518676,77.519073 60.949219,75.685547 58.661286,74.052914 58.570153,73.78322 58.564453,68.763672 c -0.003,-2.611427 0.09479,-3.202937 0.646485,-3.904297 1.119595,-1.423335 2.164238,-4.138867 2.392578,-6.21875 0.182872,-1.66573 0.319591,-2 0.820312,-2 0.330662,0 0.822568,-0.337152 1.091797,-0.748047 0.466819,-0.712456 1.633762,-5.194255 1.972656,-7.572266 0.219616,-1.541039 -0.336057,-2.880859 -1.195312,-2.880859 -0.481402,0 -0.626979,-0.144065 -0.494141,-0.490234 0.319119,-0.83161 0.810968,-4.301512 1.13086,-7.990235 0.5872,-6.771088 -0.444746,-11.330236 -2.925782,-12.929687 -0.933677,-0.601915 -1.119373,-0.866712 -0.841797,-1.201172 0.393045,-0.473596 -0.152044,-0.577488 -2.339843,-0.447266 -1.009005,0.06006 -1.247587,-0.06325 -1.65625,-0.853515 -0.459002,-0.88761 -1.68481,-1.6875 -2.585938,-1.6875 -0.236888,0 -0.516875,-0.222551 -0.621094,-0.494141 -0.135886,-0.354115 -0.348913,-0.412119 -0.753906,-0.207031 -0.328456,0.166375 -1.43481,0.168202 -2.644531,0.0059 C 47.99156,18.799778 46.408669,18.627324 45.326172,18.625 Z" />
    </g>
  </g>
</svg>
